<svg xmlns="http://www.w3.org/2000/svg" width="15.757" height="19.393" viewBox="0 0 15.757 19.393">
  <path id="Icon_metro-bin" data-name="Icon metro-bin" d="M5.711,7.988V20.109a1.216,1.216,0,0,0,1.212,1.212H17.832a1.216,1.216,0,0,0,1.212-1.212V7.988H5.711ZM9.347,18.9H8.135V10.413H9.347Zm2.424,0H10.559V10.413h1.212Zm2.424,0H12.983V10.413H14.2Zm2.424,0H15.408V10.413H16.62ZM19.347,4.352H15.408V2.837a.912.912,0,0,0-.909-.909H10.256a.912.912,0,0,0-.909.909V4.352H5.408a.912.912,0,0,0-.909.909V6.776H20.256V5.261A.912.912,0,0,0,19.347,4.352Zm-5.151,0H10.559v-1.2H14.2v1.2Z" transform="translate(-4.499 -1.928)" fill="#c6b993"/>
</svg>
