<svg xmlns="http://www.w3.org/2000/svg" width="44.027" height="44.06" viewBox="0 0 44.027 44.06">
  <g id="pomodoro-final" transform="translate(-545.659 -347)">
    <path id="Path_19" data-name="Path 19" d="M151.664,171.42h1.378a1.759,1.759,0,0,0,.28.079,7.573,7.573,0,0,1,5.3,2.883,1.208,1.208,0,0,1,.115.266c.153-.176.21-.237.262-.3a7.418,7.418,0,0,1,4.146-2.642c.466-.115.944-.191,1.416-.284h1.378a5.181,5.181,0,0,1,.767.449,1.661,1.661,0,0,1,.481,1.838,1.7,1.7,0,0,1-1.561,1.149,6.155,6.155,0,0,0-2.39.439,3.968,3.968,0,0,0-2.018,1.964,1.276,1.276,0,0,0,.185,0,17.423,17.423,0,0,1,7.45.276,15.359,15.359,0,0,1,11.778,13.16,23.008,23.008,0,0,1-1.213,10.865,19.941,19.941,0,0,1-11.039,11.956,24,24,0,0,1-15.433,1.245c-8.729-2.032-14.426-8.859-15.807-17.236-.148-.9-.23-1.809-.345-2.714v-2.665c.115-.8.194-1.614.345-2.412a14.892,14.892,0,0,1,5.753-9.4,16.6,16.6,0,0,1,12.175-3.244c.428.046.853.115,1.331.179a3.755,3.755,0,0,0-2.277-2.051,12.5,12.5,0,0,0-2.147-.345,1.722,1.722,0,0,1-1.53-1.084,1.587,1.587,0,0,1,.357-1.821A4.67,4.67,0,0,1,151.664,171.42Zm25.63,23.65a15.992,15.992,0,0,0-.1-3.933,12.2,12.2,0,0,0-3.276-6.948c-3.605-3.748-10.027-4.81-14.309-2.769a1.709,1.709,0,0,1-1.533.04,11.53,11.53,0,0,0-6.024-1.017,12.82,12.82,0,0,0-8.14,3.539,12.575,12.575,0,0,0-3.676,8.9c-.03.722,0,1.447,0,2.182h8.349c0-.291-.007-.559,0-.827a7.856,7.856,0,0,1,.065-1.2,1.7,1.7,0,0,1,3.357.253c.028.582.006,1.167.006,1.772h5.06v-4.875a1.723,1.723,0,1,1,3.437-.013v4.865h5.054c0-.595-.016-1.149,0-1.708a1.7,1.7,0,0,1,3.315-.474,3.413,3.413,0,0,1,.115.888c.017.436,0,.875,0,1.317Zm-.552,3.48h-35.9c.2.65.371,1.263.59,1.863a16.627,16.627,0,0,0,9.427,10.07,20.462,20.462,0,0,0,11.844,1.168c6.786-1.244,11.32-5.177,13.619-11.679C176.483,199.521,176.595,199.053,176.742,198.55Z" transform="translate(408.859 175.58)" fill="#c6b993"/>
  </g>
</svg>
