<svg xmlns="http://www.w3.org/2000/svg" width="37.652" height="44.06" viewBox="0 0 37.652 44.06">
  <g id="Group_1" data-name="Group 1" transform="translate(-36 -73)">
    <g id="to-do-list-final" transform="translate(36 73)">
      <path id="Path_11" data-name="Path 11" d="M368.263,452.182H333.27a4.837,4.837,0,0,1-.665-.347,1.965,1.965,0,0,1-.665-1.734V410.167a3.516,3.516,0,0,1,0-.549,1.647,1.647,0,0,1,1.214-1.474,3.176,3.176,0,0,1,.751,0h34.069a1.647,1.647,0,0,1,1.589,1.561,3.513,3.513,0,0,1,0,.549V450.1A1.965,1.965,0,0,1,368.263,452.182ZM335.379,411.5v37.276h30.8V411.5Z" transform="translate(-331.925 -408.122)" fill="#c6b993"/>
      <path id="Path_13" data-name="Path 13" d="M337.38,412.32h14.13V415.7H337.38Z" transform="translate(-321.616 -400.19)" fill="#c6b993"/>
      <path id="Path_14" data-name="Path 14" d="M351.558,415.13v3.352H337.37V415.13Z" transform="translate(-321.635 -394.88)" fill="#c6b993"/>
      <path id="Path_15" data-name="Path 15" d="M351.539,418v3.352H337.38V418Z" transform="translate(-321.616 -389.457)" fill="#c6b993"/>
      <path id="Path_16" data-name="Path 16" d="M334.77,417.51h6.155v6.155H334.77Z" transform="translate(-326.548 -390.383)" fill="#c6b993"/>
      <path id="Path_17" data-name="Path 17" d="M340.925,411.84v6.242H334.77v-6.155Zm-3.612,3.612c-.347-.347-.694-.665-.982-1.011s-.433-.173-.636,0-.318.376,0,.636a14.436,14.436,0,0,1,1.3,1.329c.4.462.462.26.751,0l2.312-2.312c.26-.26.26-.433,0-.693s-.462-.2-.694,0C338.671,414.123,338.007,414.759,337.313,415.452Z" transform="translate(-326.548 -401.097)" fill="#c6b993"/>
      <path id="Path_18" data-name="Path 18" d="M340.925,420.8H334.77V414.65h6.155Zm-3.612-2.572-1.011-1.011c-.231-.26-.376-.173-.578,0s-.376.376,0,.636l1.387,1.416a.351.351,0,0,0,.578,0l2.427-2.427c.26-.231.231-.4,0-.636s-.4-.318-.665,0Z" transform="translate(-326.548 -395.787)" fill="#c6b993"/>
    </g>
  </g>
</svg>
